<svg width="100" height="100" viewBox="0 0 100 100" fill="none" xmlns="http://www.w3.org/2000/svg">
<path d="M42.2031 37.5001V65.5958C42.2356 67.6503 43.0745 69.6096 44.5388 71.051C46.0032 72.4924 47.9755 73.3003 50.0303 73.3003C52.085 73.3003 54.0574 72.4924 55.5217 71.051C56.986 69.6096 57.825 67.6503 57.8574 65.5958L57.8828 28.7696C57.9041 27.0136 57.5766 25.2709 56.9194 23.6424C56.2621 22.0139 55.2882 20.532 54.054 19.2828C52.8198 18.0335 51.3499 17.0416 49.7294 16.3647C48.109 15.6877 46.3704 15.3391 44.6143 15.3391C42.8581 15.3391 41.1195 15.6877 39.4991 16.3647C37.8787 17.0416 36.4087 18.0335 35.1745 19.2828C33.9403 20.532 32.9664 22.0139 32.3091 23.6424C31.6519 25.2709 31.3244 27.0136 31.3457 28.7696V65.8438C31.3099 68.316 31.7659 70.7706 32.6873 73.065C33.6086 75.3594 34.9768 77.4477 36.7124 79.2086C38.4479 80.9695 40.5163 82.3677 42.7971 83.3222C45.0778 84.2766 47.5256 84.7681 49.998 84.7681C52.4705 84.7681 54.9182 84.2766 57.199 83.3222C59.4798 82.3677 61.5481 80.9695 63.2837 79.2086C65.0193 77.4477 66.3875 75.3594 67.3088 73.065C68.2301 70.7706 68.6862 68.316 68.6504 65.8438V31.1993" stroke="#F7F7F7" stroke-width="6.25" stroke-miterlimit="10" stroke-linecap="round"/>
</svg>
