<svg width="25" height="27" viewBox="0 0 25 27" fill="none" xmlns="http://www.w3.org/2000/svg">
<path d="M1 16.6255V1.78174C1 1.41299 1 1.22861 1.11406 1.11455C1.22812 1.00049 1.4125 1.00049 1.78125 1.00049H8.18125C8.49375 1.00049 8.65 1.00049 8.79063 1.05674C8.93125 1.11455 9.04219 1.22236 9.26719 1.43955L11.5922 3.68643C11.8172 3.90361 11.9297 4.01143 12.0703 4.06924C12.2109 4.12549 12.3672 4.12549 12.6797 4.12549H22.3594C22.7391 4.12549 22.9281 4.12549 22.9953 4.24736C23.0625 4.36924 22.9594 4.52861 22.7531 4.84736L18.4594 11.5161C18.3281 11.7224 18.2609 11.8239 18.2609 11.9396C18.2609 12.0536 18.3281 12.1583 18.4594 12.3614L22.7531 19.0302C22.9594 19.3489 23.0609 19.5083 22.9953 19.6302C22.9297 19.7521 22.7391 19.7521 22.3594 19.7521H12.6781C12.3656 19.7521 12.2094 19.7521 12.0687 19.6958C11.9281 19.638 11.8172 19.5302 11.5922 19.313L9.26719 17.0661C9.04219 16.8489 8.92969 16.7411 8.78906 16.6833C8.64844 16.6271 8.49219 16.6271 8.17969 16.6271L1 16.6255ZM1 16.6255V26.0005V16.6255Z" fill="#787878"/>
<path d="M1 16.6255V1.78174C1 1.41299 1 1.22861 1.11406 1.11455C1.22812 1.00049 1.4125 1.00049 1.78125 1.00049H8.18125C8.49375 1.00049 8.65 1.00049 8.79063 1.05674C8.93125 1.11455 9.04219 1.22236 9.26719 1.43955L11.5922 3.68643C11.8172 3.90361 11.9297 4.01143 12.0703 4.06924C12.2109 4.12549 12.3672 4.12549 12.6797 4.12549H22.3594C22.7391 4.12549 22.9281 4.12549 22.9953 4.24736C23.0625 4.36924 22.9594 4.52861 22.7531 4.84736L18.4594 11.5161C18.3281 11.7224 18.2609 11.8239 18.2609 11.9396C18.2609 12.0536 18.3281 12.1583 18.4594 12.3614L22.7531 19.0302C22.9594 19.3489 23.0609 19.5083 22.9953 19.6302C22.9297 19.7521 22.7391 19.7521 22.3594 19.7521H12.6781C12.3656 19.7521 12.2094 19.7521 12.0687 19.6958C11.9281 19.638 11.8172 19.5302 11.5922 19.313L9.26719 17.0661C9.04219 16.8489 8.92969 16.7411 8.78906 16.6833C8.64844 16.6271 8.49219 16.6271 8.17969 16.6271L1 16.6255ZM1 16.6255V26.0005" stroke="#787878" stroke-width="2" stroke-linecap="round"/>
<path d="M1.78125 1.50049H8.17969C8.5214 1.50049 8.57023 1.50845 8.60059 1.52002C8.61614 1.52658 8.63377 1.53628 8.67676 1.57275L8.91992 1.79932L11.2451 4.04639C11.4411 4.23555 11.6292 4.42907 11.8789 4.53174L11.8828 4.53369C12.0708 4.6089 12.2706 4.62311 12.4736 4.62549H22.3018L18.0391 11.2446C17.9789 11.3378 17.9122 11.4407 17.8643 11.5356C17.8116 11.64 17.7607 11.7742 17.7607 11.938C17.7607 12.1024 17.8119 12.2365 17.8643 12.3403C17.9114 12.4338 17.9779 12.5364 18.0371 12.6294L18.0391 12.6323L22.3018 19.2505H12.6797C12.3335 19.2505 12.2881 19.2418 12.2578 19.23C12.2425 19.2234 12.2245 19.2138 12.1826 19.1782L11.9395 18.9517L9.61426 16.7046C9.4183 16.5154 9.2302 16.3219 8.98047 16.2192L8.97656 16.2173L8.88086 16.1851C8.72129 16.1383 8.5548 16.1275 8.38574 16.1255H1.78125C1.68721 16.1255 1.61316 16.1251 1.5498 16.1235C1.53293 16.1231 1.51773 16.1212 1.50391 16.1206C1.50332 16.1071 1.50237 16.0922 1.50195 16.0757C1.50036 16.0123 1.5 15.9383 1.5 15.8442V1.78174C1.5 1.6877 1.50036 1.61364 1.50195 1.55029C1.50238 1.53343 1.5033 1.51821 1.50391 1.50439C1.51772 1.50379 1.53294 1.50287 1.5498 1.50244C1.61316 1.50085 1.68721 1.50049 1.78125 1.50049Z" fill="#787878" stroke="#787878"/>
</svg>
