<svg width="222" height="222" viewBox="0 0 222 222" fill="none" xmlns="http://www.w3.org/2000/svg">
<path d="M194.406 19.1875H27.5312C13.7069 19.1875 2.5 30.3944 2.5 44.2188V194.406C2.5 208.231 13.7069 219.438 27.5312 219.438H194.406C208.231 219.438 219.438 208.231 219.438 194.406V44.2188C219.438 30.3944 208.231 19.1875 194.406 19.1875Z" stroke="black" stroke-width="5" stroke-linejoin="round"/>
<path d="M131.828 110.969C138.74 110.969 144.344 105.365 144.344 98.4531C144.344 91.5409 138.74 85.9375 131.828 85.9375C124.916 85.9375 119.312 91.5409 119.312 98.4531C119.312 105.365 124.916 110.969 131.828 110.969Z" fill="black"/>
<path d="M173.547 110.969C180.459 110.969 186.062 105.365 186.062 98.4531C186.062 91.5409 180.459 85.9375 173.547 85.9375C166.635 85.9375 161.031 91.5409 161.031 98.4531C161.031 105.365 166.635 110.969 173.547 110.969Z" fill="black"/>
<path d="M131.828 152.688C138.74 152.688 144.344 147.084 144.344 140.172C144.344 133.26 138.74 127.656 131.828 127.656C124.916 127.656 119.312 133.26 119.312 140.172C119.312 147.084 124.916 152.688 131.828 152.688Z" fill="black"/>
<path d="M173.547 152.688C180.459 152.688 186.062 147.084 186.062 140.172C186.062 133.26 180.459 127.656 173.547 127.656C166.635 127.656 161.031 133.26 161.031 140.172C161.031 147.084 166.635 152.688 173.547 152.688Z" fill="black"/>
<path d="M48.3906 152.688C55.3028 152.688 60.9062 147.084 60.9062 140.172C60.9062 133.26 55.3028 127.656 48.3906 127.656C41.4784 127.656 35.875 133.26 35.875 140.172C35.875 147.084 41.4784 152.688 48.3906 152.688Z" fill="black"/>
<path d="M90.1094 152.688C97.0216 152.688 102.625 147.084 102.625 140.172C102.625 133.26 97.0216 127.656 90.1094 127.656C83.1972 127.656 77.5938 133.26 77.5938 140.172C77.5938 147.084 83.1972 152.688 90.1094 152.688Z" fill="black"/>
<path d="M48.3906 194.406C55.3028 194.406 60.9062 188.803 60.9062 181.891C60.9062 174.978 55.3028 169.375 48.3906 169.375C41.4784 169.375 35.875 174.978 35.875 181.891C35.875 188.803 41.4784 194.406 48.3906 194.406Z" fill="black"/>
<path d="M90.1094 194.406C97.0216 194.406 102.625 188.803 102.625 181.891C102.625 174.978 97.0216 169.375 90.1094 169.375C83.1972 169.375 77.5938 174.978 77.5938 181.891C77.5938 188.803 83.1972 194.406 90.1094 194.406Z" fill="black"/>
<path d="M131.828 194.406C138.74 194.406 144.344 188.803 144.344 181.891C144.344 174.978 138.74 169.375 131.828 169.375C124.916 169.375 119.312 174.978 119.312 181.891C119.312 188.803 124.916 194.406 131.828 194.406Z" fill="black"/>
<path d="M44.2188 2.5V19.1875M177.719 2.5V19.1875" stroke="black" stroke-width="5" stroke-linecap="round" stroke-linejoin="round"/>
<path d="M219.438 60.9062H2.5" stroke="black" stroke-width="5" stroke-linejoin="round"/>
</svg>
