<svg width="100" height="100" viewBox="0 0 100 100" fill="none" xmlns="http://www.w3.org/2000/svg">
<path d="M8.3335 91.6666V16.6666C8.3335 14.3749 9.15016 12.4138 10.7835 10.7833C12.4168 9.1527 14.3779 8.33603 16.6668 8.33325H83.3335C85.6252 8.33325 87.5877 9.14992 89.221 10.7833C90.8543 12.4166 91.6696 14.3777 91.6668 16.6666V66.6666C91.6668 68.9583 90.8515 70.9208 89.221 72.5541C87.5904 74.1874 85.6279 75.0027 83.3335 74.9999H25.0002L8.3335 91.6666ZM25.0002 58.3333H58.3335V49.9999H25.0002V58.3333ZM25.0002 45.8333H75.0002V37.4999H25.0002V45.8333ZM25.0002 33.3333H75.0002V24.9999H25.0002V33.3333Z" fill="#F7F7F7"/>
</svg>
