<svg width="80" height="80" viewBox="0 0 80 80" fill="none" xmlns="http://www.w3.org/2000/svg">
<path d="M16.6665 20.8337H12.4998C10.2897 20.8337 8.17008 21.7117 6.60728 23.2745C5.04448 24.8373 4.1665 26.9569 4.1665 29.1671V66.6671C4.1665 68.8772 5.04448 70.9968 6.60728 72.5596C8.17008 74.1224 10.2897 75.0004 12.4998 75.0004H49.9998C52.21 75.0004 54.3296 74.1224 55.8924 72.5596C57.4552 70.9968 58.3332 68.8772 58.3332 66.6671V62.5004" stroke="#FA4A0C" stroke-width="8.33333" stroke-linecap="round" stroke-linejoin="round"/>
<path d="M54.1667 12.5005L66.6667 25.0005M72.4375 19.1047C74.0785 17.4637 75.0004 15.238 75.0004 12.9172C75.0004 10.5964 74.0785 8.37072 72.4375 6.72969C70.7965 5.08867 68.5708 4.16675 66.25 4.16675C63.9292 4.16675 61.7035 5.08867 60.0625 6.72969L25 41.6672V54.1672H37.5L72.4375 19.1047Z" stroke="#FA4A0C" stroke-width="8.33333" stroke-linecap="round" stroke-linejoin="round"/>
</svg>
