<svg width="113" height="113" viewBox="0 0 113 113" fill="none" xmlns="http://www.w3.org/2000/svg">
<path d="M86.671 19.549C85.33 19.549 84.0192 19.9466 82.9042 20.6916C81.7893 21.4366 80.9203 22.4955 80.4071 23.7344C79.8939 24.9733 79.7597 26.3365 80.0213 27.6517C80.2829 28.9669 80.9286 30.175 81.8768 31.1232C82.825 32.0714 84.0331 32.7171 85.3483 32.9787C86.6635 33.2403 88.0267 33.1061 89.2656 32.5929C90.5045 32.0797 91.5634 31.2107 92.3084 30.0958C93.0534 28.9808 93.451 27.67 93.451 26.329C93.451 24.5308 92.7367 22.8063 91.4652 21.5348C90.1937 20.2633 88.4692 19.549 86.671 19.549ZM112.661 33.222C112.55 28.5343 111.672 23.8964 110.062 19.4925C108.632 15.7214 106.395 12.3083 103.508 9.492C100.71 6.59596 97.2905 4.3741 93.5075 2.9945C89.1155 1.33431 84.4723 0.436236 79.778 0.339C73.789 -3.15718e-07 71.868 0 56.5 0C41.132 0 39.211 -3.15718e-07 33.222 0.339C28.5277 0.436236 23.8845 1.33431 19.4925 2.9945C15.7182 4.39148 12.3021 6.61097 9.492 9.492C6.59596 12.2898 4.3741 15.7095 2.9945 19.4925C1.33431 23.8845 0.436236 28.5277 0.339 33.222C-3.15718e-07 39.211 0 41.132 0 56.5C0 71.868 -3.15718e-07 73.789 0.339 79.778C0.436236 84.4723 1.33431 89.1155 2.9945 93.5075C4.3741 97.2905 6.59596 100.71 9.492 103.508C12.3021 106.389 15.7182 108.609 19.4925 110.006C23.8845 111.666 28.5277 112.564 33.222 112.661C39.211 113 41.132 113 56.5 113C71.868 113 73.789 113 79.778 112.661C84.4723 112.564 89.1155 111.666 93.5075 110.006C97.2905 108.626 100.71 106.404 103.508 103.508C106.402 100.698 108.64 97.2828 110.062 93.5075C111.672 89.1036 112.55 84.4657 112.661 79.778C112.661 73.789 113 71.868 113 56.5C113 41.132 113 39.211 112.661 33.222ZM102.491 79.1C102.451 82.6866 101.801 86.2402 100.57 89.609C99.6679 92.0678 98.2189 94.2896 96.3325 96.1065C94.4988 97.9725 92.2819 99.4182 89.835 100.344C86.4662 101.575 82.9126 102.225 79.326 102.265C73.676 102.548 71.5855 102.604 56.726 102.604C41.8665 102.604 39.776 102.604 34.126 102.265C30.4018 102.338 26.6931 101.765 23.165 100.57C20.827 99.5944 18.7123 98.1526 16.95 96.3325C15.0747 94.5174 13.6439 92.2938 12.769 89.835C11.385 86.419 10.6197 82.784 10.509 79.1C10.509 73.45 10.17 71.3595 10.17 56.5C10.17 41.6405 10.17 39.55 10.509 33.9C10.5296 30.233 11.1991 26.5986 12.4865 23.165C13.4812 20.7802 15.0079 18.6544 16.95 16.95C18.6615 15.0018 20.7843 13.458 23.165 12.43C26.6081 11.1841 30.2385 10.5344 33.9 10.509C39.55 10.509 41.6405 10.17 56.5 10.17C71.3595 10.17 73.45 10.17 79.1 10.509C82.6866 10.549 86.2402 11.1986 89.609 12.43C92.1765 13.3829 94.481 14.9321 96.3325 16.95C98.1784 18.6903 99.6243 20.8109 100.57 23.165C101.827 26.6052 102.477 30.2375 102.491 33.9C102.773 39.55 102.83 41.6405 102.83 56.5C102.83 71.3595 102.773 73.45 102.491 79.1ZM56.5 27.5155C50.7698 27.5267 45.1715 29.2361 40.4125 32.4277C35.6535 35.6194 31.9472 40.15 29.7621 45.4472C27.577 50.7444 27.0111 56.5704 28.1358 62.1892C29.2606 67.8079 32.0255 72.9671 36.0813 77.015C40.1371 81.0629 45.3018 83.8178 50.9227 84.9316C56.5436 86.0454 62.3685 85.4682 67.6614 83.2727C72.9543 81.0773 77.4778 77.3623 80.6601 72.597C83.8425 67.8318 85.541 62.2302 85.541 56.5C85.5485 52.6868 84.802 48.9098 83.3445 45.3862C81.887 41.8626 79.7473 38.6619 77.0483 35.9682C74.3494 33.2745 71.1445 31.141 67.6181 29.6903C64.0916 28.2397 60.3131 27.5006 56.5 27.5155ZM56.5 75.3145C52.7788 75.3145 49.1413 74.2111 46.0472 72.1437C42.9532 70.0763 40.5417 67.1379 39.1177 63.7C37.6936 60.2621 37.3211 56.4791 38.047 52.8295C38.773 49.1798 40.5649 45.8274 43.1961 43.1961C45.8274 40.5649 49.1798 38.773 52.8295 38.047C56.4791 37.3211 60.2621 37.6936 63.7 39.1177C67.1379 40.5417 70.0763 42.9532 72.1437 46.0472C74.2111 49.1413 75.3145 52.7788 75.3145 56.5C75.3145 58.9708 74.8279 61.4173 73.8823 63.7C72.9368 65.9827 71.5509 68.0568 69.8039 69.8039C68.0568 71.5509 65.9827 72.9368 63.7 73.8823C61.4173 74.8279 58.9708 75.3145 56.5 75.3145Z" fill="#FA4A0C"/>
</svg>
