<svg width="48" height="49" viewBox="0 0 48 49" fill="none" xmlns="http://www.w3.org/2000/svg">
<path d="M42.2503 48.75C43.7399 48.75 45.0146 48.2201 46.0745 47.1602C47.1344 46.1003 47.6652 44.8247 47.667 43.3333V5.41667C47.667 3.92708 47.1362 2.65236 46.0745 1.5925C45.0128 0.532639 43.7381 0.00180556 42.2503 0H26.0003C25.233 0 24.5893 0.26 24.0693 0.78C23.5493 1.3 23.2902 1.94278 23.292 2.70833C23.2938 3.47389 23.5538 4.11757 24.072 4.63937C24.5902 5.16118 25.233 5.42028 26.0003 5.41667H42.2503V43.3333H26.0003C25.233 43.3333 24.5893 43.5933 24.0693 44.1133C23.5493 44.6333 23.2902 45.2761 23.292 46.0417C23.2938 46.8072 23.5538 47.4509 24.072 47.9727C24.5902 48.4945 25.233 48.7536 26.0003 48.75H42.2503ZM9.27637 27.0833H28.7087C29.476 27.0833 30.1188 26.8233 30.637 26.3033C31.1552 25.7833 31.4152 25.1406 31.417 24.375C31.4188 23.6094 31.1588 22.9667 30.637 22.4467C30.1152 21.9267 29.4724 21.6667 28.7087 21.6667H9.27637L14.3545 16.5885C14.851 16.092 15.0993 15.4826 15.0993 14.7604C15.0993 14.0382 14.851 13.4062 14.3545 12.8646C13.858 12.3229 13.226 12.0403 12.4587 12.0169C11.6913 11.9934 11.0368 12.2534 10.4951 12.7969L0.812829 22.4792C0.271162 23.0208 0.000325886 23.6528 0.000325886 24.375C0.000325886 25.0972 0.271162 25.7292 0.812829 26.2708L10.4951 35.9531C11.0368 36.4948 11.6796 36.7548 12.4235 36.7331C13.1673 36.7115 13.811 36.4289 14.3545 35.8854C14.851 35.3437 15.0875 34.701 15.0641 33.9571C15.0406 33.2132 14.7815 32.5921 14.2868 32.0938L9.27637 27.0833Z" fill="#FA4A0C"/>
</svg>
