<svg width="95" height="109" viewBox="0 0 95 109" fill="none" xmlns="http://www.w3.org/2000/svg">
<path d="M75.1583 17.0375C71.0294 12.3221 68.7535 6.26762 68.7542 0H50.0854V74.9167C49.9444 78.9718 48.2338 82.8136 45.3144 85.6315C42.3949 88.4495 38.4951 90.0233 34.4375 90.0208C25.8583 90.0208 18.7292 83.0125 18.7292 74.3125C18.7292 63.9208 28.7583 56.1271 39.0896 59.3292V40.2375C18.2458 37.4583 0 53.65 0 74.3125C0 94.4312 16.675 108.75 34.3771 108.75C53.3479 108.75 68.7542 93.3437 68.7542 74.3125V36.3104C76.3244 41.747 85.4132 44.6639 94.7333 44.6479V25.9792C94.7333 25.9792 83.375 26.5229 75.1583 17.0375Z" fill="#F7F7F7"/>
</svg>
