<svg width="117" height="117" viewBox="0 0 117 117" fill="none" xmlns="http://www.w3.org/2000/svg">
<path d="M99.1667 16.9753C93.8179 11.5743 87.4476 7.29178 80.4271 4.37743C73.4067 1.46307 65.8763 -0.0248685 58.275 0.000314388C26.425 0.000314388 0.466668 25.9587 0.466668 57.8087C0.466668 68.017 3.15 77.9337 8.16667 86.6837L0 116.667L30.625 108.617C39.0833 113.225 48.5917 115.675 58.275 115.675C90.125 115.675 116.083 89.717 116.083 57.867C116.083 42.4087 110.075 27.8836 99.1667 16.9753ZM58.275 105.875C49.6417 105.875 41.1833 103.542 33.775 99.167L32.025 98.117L13.825 102.9L18.6667 85.167L17.5 83.3587C12.7024 75.6998 10.1554 66.8461 10.15 57.8087C10.15 31.3253 31.7333 9.74198 58.2167 9.74198C71.05 9.74198 83.125 14.7586 92.1667 23.8586C96.6444 28.3145 100.193 33.6151 102.606 39.4531C105.019 45.291 106.249 51.55 106.225 57.867C106.342 84.3503 84.7583 105.875 58.275 105.875ZM84.6417 69.942C83.1833 69.242 76.0667 65.742 74.7833 65.217C73.4417 64.7503 72.5083 64.517 71.5167 65.917C70.525 67.3753 67.7833 70.642 66.9667 71.5753C66.15 72.567 65.275 72.6837 63.8167 71.9253C62.3583 71.2253 57.6917 69.6503 52.2083 64.7503C47.8917 60.9003 45.0333 56.1753 44.1583 54.717C43.3417 53.2587 44.0417 52.5003 44.8 51.742C45.4417 51.1003 46.2583 50.0503 46.9583 49.2336C47.6583 48.417 47.95 47.7753 48.4167 46.842C48.8833 45.8503 48.65 45.0337 48.3 44.3337C47.95 43.6337 45.0333 36.517 43.8667 33.6003C42.7 30.8003 41.475 31.1503 40.6 31.092H37.8C36.8083 31.092 35.2917 31.442 33.95 32.9003C32.6667 34.3586 28.9333 37.8586 28.9333 44.9753C28.9333 52.092 34.125 58.9753 34.825 59.9087C35.525 60.9003 45.0333 75.4837 59.5 81.7253C62.9417 83.242 65.625 84.117 67.725 84.7587C71.1667 85.867 74.3167 85.692 76.825 85.342C79.625 84.9336 85.4 81.842 86.5667 78.4587C87.7917 75.0753 87.7917 72.217 87.3833 71.5753C86.975 70.9337 86.1 70.642 84.6417 69.942Z" fill="#F7F7F7"/>
</svg>
