<svg width="95" height="67" viewBox="0 0 95 67" fill="none" xmlns="http://www.w3.org/2000/svg">
<path d="M38 47.5L62.6525 33.25L38 19V47.5ZM92.91 10.3075C93.5275 12.54 93.955 15.5325 94.24 19.3325C94.5725 23.1325 94.715 26.41 94.715 29.26L95 33.25C95 43.6525 94.24 51.3 92.91 56.1925C91.7225 60.4675 88.9675 63.2225 84.6925 64.41C82.46 65.0275 78.375 65.455 72.105 65.74C65.93 66.0725 60.2775 66.215 55.0525 66.215L47.5 66.5C27.5975 66.5 15.2 65.74 10.3075 64.41C6.0325 63.2225 3.2775 60.4675 2.09 56.1925C1.4725 53.96 1.045 50.9675 0.76 47.1675C0.4275 43.3675 0.285 40.09 0.285 37.24L0 33.25C0 22.8475 0.76 15.2 2.09 10.3075C3.2775 6.0325 6.0325 3.2775 10.3075 2.09C12.54 1.4725 16.625 1.045 22.895 0.759999C29.07 0.427499 34.7225 0.285 39.9475 0.285L47.5 0C67.4025 0 79.8 0.76 84.6925 2.09C88.9675 3.2775 91.7225 6.0325 92.91 10.3075Z" fill="#F7F7F7"/>
</svg>
