<svg xmlns="http://www.w3.org/2000/svg" xmlns:xlink="http://www.w3.org/1999/xlink" width="500" zoomAndPan="magnify" viewBox="0 0 375 374.999991" height="500" preserveAspectRatio="xMidYMid meet" version="1.0"><path fill="#fa4a0d" d="M 173.050781 8.382812 C 174.3125 8.335938 175.5625 8.316406 176.824219 8.320312 L 177.976562 8.320312 C 178.78125 8.320312 179.589844 8.320312 180.394531 8.320312 C 181.625 8.324219 182.855469 8.320312 184.085938 8.316406 C 184.871094 8.316406 185.652344 8.320312 186.433594 8.320312 L 187.550781 8.316406 C 189.210938 8.324219 190.667969 8.441406 192.269531 8.851562 C 193.050781 8.867188 193.832031 8.871094 194.613281 8.851562 L 194.613281 9.789062 L 197.894531 9.320312 L 197.894531 10.257812 L 199.011719 10.222656 C 201.808594 10.175781 204.125 10.285156 206.800781 11.195312 C 207.738281 11.363281 208.671875 11.527344 209.613281 11.664062 L 209.613281 12.601562 L 211.050781 12.542969 C 212.980469 12.601562 214.355469 12.945312 216.175781 13.539062 L 216.175781 14.476562 L 217.144531 14.386719 C 218.585938 14.480469 219.601562 14.886719 220.902344 15.492188 C 221.808594 15.886719 222.699219 16.160156 223.648438 16.4375 C 227.105469 17.546875 230.304688 19.378906 233.519531 21.039062 L 233.519531 21.976562 L 234.925781 21.976562 L 234.925781 22.914062 L 235.746094 23.09375 C 237.890625 23.679688 239.917969 24.644531 241.519531 26.195312 L 242.425781 27.132812 C 242.996094 27.476562 243.570312 27.808594 244.15625 28.128906 L 245.707031 29.007812 L 246.175781 29.945312 L 247.261719 30.589844 C 248.53125 31.355469 249.371094 32.132812 250.375 33.214844 L 251.398438 34.285156 C 252.097656 35.023438 252.792969 35.769531 253.480469 36.515625 C 255.242188 38.429688 255.242188 38.429688 257.472656 39.667969 C 258.457031 39.832031 258.457031 39.832031 259.769531 39.789062 L 259.769531 38.851562 C 265.085938 36.699219 265.085938 36.699219 268.207031 36.976562 L 268.207031 36.039062 L 271.957031 36.039062 L 271.957031 35.101562 C 280.261719 34.125 288.453125 34.058594 296.800781 34.164062 L 296.800781 35.101562 L 297.765625 35.066406 C 300.851562 35.007812 303.644531 35.308594 306.644531 36.039062 L 306.644531 36.976562 L 307.847656 36.917969 C 309.65625 36.984375 311.023438 37.363281 312.738281 37.914062 L 312.738281 38.851562 L 313.734375 38.792969 C 315.261719 38.859375 316.46875 39.257812 317.894531 39.789062 L 317.894531 40.726562 L 318.949219 40.929688 C 320.015625 41.148438 321.0625 41.390625 322.113281 41.664062 L 322.113281 42.601562 L 323.988281 42.601562 L 323.988281 43.539062 L 326.800781 44.007812 L 327.269531 45.414062 L 328.675781 45.414062 L 328.675781 46.351562 L 330.082031 46.351562 L 330.082031 47.289062 L 331.488281 47.289062 L 331.488281 48.226562 L 332.632812 48.402344 L 333.832031 48.695312 L 334.300781 49.632812 C 335.082031 50.105469 335.863281 50.574219 336.644531 51.039062 C 337.414062 51.65625 338.164062 52.289062 338.902344 52.941406 L 340.023438 53.925781 L 340.863281 54.789062 L 340.863281 55.726562 L 341.671875 56.070312 C 342.941406 56.777344 343.800781 57.617188 344.820312 58.65625 L 345.871094 59.71875 C 348.289062 62.3125 350.382812 65.105469 352.464844 67.972656 L 353.300781 69.105469 L 354.097656 70.203125 L 354.820312 71.191406 C 355.398438 72.136719 355.660156 72.921875 355.863281 74.007812 L 356.800781 74.007812 C 362.425781 85.652344 362.425781 85.652344 362.425781 88.539062 L 363.363281 89.007812 C 363.746094 90.320312 363.746094 90.320312 364.097656 91.964844 L 364.449219 93.601562 L 364.769531 95.101562 L 365.015625 96.058594 C 365.433594 97.785156 365.664062 99.546875 365.941406 101.300781 C 366.152344 102.636719 366.152344 102.636719 366.644531 104.007812 C 366.683594 104.707031 366.703125 105.402344 366.699219 106.101562 L 366.699219 107.382812 L 366.691406 108.757812 L 366.6875 110.171875 C 366.6875 111.660156 366.679688 113.152344 366.675781 114.640625 C 366.671875 115.652344 366.671875 116.660156 366.667969 117.671875 C 366.664062 120.148438 366.65625 122.625 366.644531 125.101562 L 365.707031 125.101562 L 366.175781 127.914062 L 365.238281 127.914062 L 365.503906 128.9375 C 365.71875 130.316406 365.582031 131.261719 365.238281 132.601562 L 364.300781 132.601562 L 364.359375 134.066406 C 364.304688 135.835938 364.058594 137.078125 363.363281 138.695312 L 362.425781 139.164062 L 362.515625 140.421875 C 362.414062 142.222656 361.957031 142.800781 361.019531 144.320312 C 360.386719 145.585938 359.796875 146.871094 359.203125 148.15625 L 358.203125 150.292969 L 356.570312 153.785156 L 355.980469 155.011719 L 355.492188 156.046875 C 354.816406 157.160156 353.976562 157.941406 353.050781 158.851562 C 352.558594 159.542969 352.078125 160.246094 351.617188 160.960938 C 349.554688 163.960938 347.121094 166.539062 344.613281 169.164062 L 343.664062 170.1875 C 340.375 173.640625 336.507812 176.566406 332.425781 179.007812 L 331.519531 179.945312 C 330.34375 181.085938 329.226562 181.597656 327.738281 182.289062 C 327.035156 182.648438 326.332031 183.011719 325.628906 183.371094 C 323.632812 184.371094 321.609375 185.292969 319.566406 186.183594 L 317.898438 186.910156 C 316.488281 187.445312 316.488281 187.445312 315.082031 187.445312 L 314.613281 188.382812 L 312.269531 188.382812 L 311.800781 189.320312 C 310.53125 189.675781 309.28125 189.980469 307.992188 190.257812 C 307.289062 190.414062 306.582031 190.570312 305.878906 190.726562 L 304.824219 190.960938 C 303.957031 191.164062 303.105469 191.421875 302.261719 191.6875 C 299.957031 192.285156 297.675781 192.46875 295.308594 192.660156 L 293.9375 192.78125 C 291.546875 192.984375 289.183594 193.089844 286.785156 193.082031 L 285.277344 193.074219 L 284.144531 193.070312 L 284.148438 193.910156 C 284.160156 196.855469 284.164062 199.800781 284.171875 202.742188 C 284.171875 203.835938 284.175781 204.925781 284.179688 206.019531 C 284.199219 211.515625 284.195312 217.007812 283.953125 222.5 L 283.90625 223.699219 C 283.757812 226.671875 283.375 229.386719 281.800781 231.976562 C 280.269531 233.988281 278.773438 235.390625 276.46875 236.457031 C 274.222656 236.730469 272.285156 236.746094 270.082031 236.195312 C 268.269531 235.398438 266.605469 234.425781 264.925781 233.382812 L 263.816406 232.691406 C 263.191406 232.300781 262.570312 231.902344 261.953125 231.496094 C 261.105469 230.960938 261.105469 230.960938 259.769531 230.570312 L 259.769531 229.632812 L 259.039062 229.484375 C 257.492188 229.050781 256.082031 228.40625 254.613281 227.757812 L 254.613281 226.820312 L 253.578125 226.652344 C 252.253906 226.347656 251.269531 225.90625 250.074219 225.265625 C 248.195312 224.300781 246.269531 223.433594 244.296875 222.675781 C 243.210938 222.253906 242.132812 221.824219 241.054688 221.386719 C 230.503906 217.132812 219.503906 214.152344 208.207031 212.757812 C 206.621094 212.519531 205.03125 212.28125 203.445312 212.039062 C 198.355469 211.421875 193.289062 211.257812 188.167969 211.261719 L 187.15625 211.261719 C 174.136719 210.761719 174.136719 210.761719 161.800781 213.695312 C 160.867188 213.816406 159.9375 213.9375 159 214.042969 C 157.988281 214.160156 157.988281 214.160156 156.761719 214.425781 C 155.707031 214.632812 155.707031 214.632812 153.832031 214.632812 L 153.832031 215.570312 L 152.203125 215.734375 C 150.101562 216 148.167969 216.53125 146.15625 217.179688 L 145.027344 217.542969 C 141.042969 218.84375 137.140625 220.359375 133.242188 221.890625 C 130.4375 222.992188 127.636719 224.023438 124.769531 224.945312 L 124.769531 225.882812 C 123.511719 226.558594 122.25 227.230469 120.992188 227.902344 L 119.921875 228.476562 C 118.335938 229.324219 116.769531 230.113281 115.113281 230.820312 C 113.042969 231.714844 111.148438 232.84375 109.210938 233.992188 C 108.46875 234.425781 107.714844 234.847656 106.957031 235.257812 L 106.019531 235.257812 L 105.550781 236.195312 C 100.152344 236.367188 100.152344 236.367188 97.582031 235.257812 L 97.582031 234.320312 L 96.738281 234.195312 C 95.707031 233.851562 95.707031 233.851562 94.941406 233.050781 L 94.242188 232.0625 L 93.535156 231.085938 C 92.484375 229.46875 91.863281 228.195312 91.695312 226.261719 L 91.488281 224.476562 L 91.019531 224.007812 C 90.976562 222.980469 90.96875 221.957031 90.976562 220.929688 L 90.980469 219.980469 C 91.007812 216.484375 91.125 212.996094 91.253906 209.503906 L 91.324219 207.570312 C 91.375 206.015625 91.433594 204.464844 91.488281 202.914062 L 87.738281 203.382812 L 87.738281 202.445312 L 86.515625 202.476562 C 81.550781 202.550781 76.726562 202.101562 71.800781 201.507812 L 71.800781 200.570312 L 70.703125 200.65625 C 68.355469 200.539062 66.277344 199.886719 64.039062 199.191406 L 62.613281 198.753906 C 59.289062 197.699219 56.023438 196.488281 52.816406 195.121094 L 51.605469 194.609375 C 49.492188 193.683594 47.667969 192.648438 45.832031 191.257812 C 45.007812 190.644531 45.007812 190.644531 43.683594 190.042969 C 41.890625 189.125 40.429688 187.949219 38.871094 186.683594 C 36.921875 185.039062 36.921875 185.039062 34.769531 183.695312 L 34.769531 182.757812 L 33.832031 182.757812 C 33.140625 182.035156 33.140625 182.035156 32.339844 181.058594 C 30.96875 179.433594 29.539062 178.082031 27.871094 176.769531 L 27.269531 176.195312 L 27.269531 175.257812 L 26.332031 175.257812 C 25.875 174.613281 25.433594 173.957031 25.007812 173.292969 C 24.429688 172.402344 23.808594 171.558594 23.164062 170.714844 L 22.484375 169.8125 C 22.019531 169.199219 21.554688 168.589844 21.085938 167.980469 C 20.082031 166.648438 19.367188 165.644531 18.910156 164.023438 L 18.832031 163.070312 L 17.894531 163.070312 C 17.265625 161.707031 16.640625 160.335938 16.019531 158.96875 L 15.476562 157.796875 L 14.964844 156.660156 L 14.488281 155.621094 C 14.144531 154.632812 14.144531 154.632812 14.144531 152.757812 L 13.207031 152.757812 L 12.917969 151.75 L 12.535156 150.441406 L 12.15625 149.140625 C 11.898438 148.097656 11.898438 148.097656 11.332031 147.601562 L 10.863281 144.320312 L 10.394531 143.851562 C 10.363281 143.136719 10.355469 142.425781 10.367188 141.710938 L 10.378906 140.539062 L 10.394531 139.632812 L 9.457031 139.632812 L 9.371094 138.417969 L 9.253906 136.847656 C 9.214844 136.332031 9.175781 135.816406 9.136719 135.285156 L 8.988281 134.007812 L 8.519531 133.539062 C 8.476562 132.90625 8.457031 132.273438 8.460938 131.640625 L 8.453125 130.425781 L 8.457031 129.101562 L 8.457031 127.75 C 8.457031 126.804688 8.457031 125.863281 8.460938 124.917969 C 8.460938 123.464844 8.460938 122.015625 8.457031 120.566406 C 8.457031 119.652344 8.457031 118.734375 8.457031 117.820312 L 8.453125 116.496094 L 8.460938 115.277344 L 8.460938 114.199219 L 8.519531 113.382812 L 8.988281 112.914062 C 9.085938 112.054688 9.160156 111.195312 9.222656 110.335938 C 9.285156 109.476562 9.359375 108.613281 9.457031 107.757812 L 9.925781 107.289062 L 10.394531 104.007812 L 10.863281 103.539062 C 11.238281 101.890625 11.558594 100.234375 11.886719 98.578125 C 12.203125 97.257812 12.53125 96.261719 13.207031 95.101562 L 14.144531 95.101562 C 14.101562 94.609375 14.101562 94.609375 14.058594 94.105469 C 14.167969 92.425781 14.726562 91.394531 15.523438 89.914062 C 16.722656 87.679688 16.722656 87.679688 17.425781 85.257812 L 18.363281 85.257812 L 18.804688 84.144531 C 19.300781 82.914062 19.300781 82.914062 19.769531 81.976562 L 20.707031 81.976562 L 20.707031 80.570312 L 21.644531 80.570312 L 21.644531 79.164062 L 22.582031 79.164062 L 22.582031 77.757812 L 23.519531 77.757812 L 23.519531 76.351562 L 24.457031 76.351562 L 24.632812 75.441406 L 24.925781 74.476562 L 25.863281 74.007812 L 26.332031 72.601562 L 27.269531 72.601562 L 27.621094 71.722656 L 28.207031 70.726562 L 30.082031 69.789062 L 30.492188 68.96875 C 31.273438 67.402344 32.480469 66.203125 33.832031 65.101562 L 34.769531 65.101562 L 35.0625 64.28125 C 35.949219 62.828125 37.066406 62.199219 38.519531 61.351562 L 39.457031 61.351562 L 39.75 60.472656 L 40.394531 59.476562 C 41.859375 58.890625 41.859375 58.890625 43.207031 58.539062 L 43.207031 57.601562 L 46.019531 56.664062 L 46.019531 55.726562 L 46.800781 55.359375 C 47.976562 54.808594 49.152344 54.257812 50.328125 53.703125 L 51.554688 53.128906 C 53.523438 52.203125 55.425781 51.257812 57.269531 50.101562 C 58.917969 49.320312 60.136719 49.058594 61.957031 49.164062 L 61.957031 48.226562 L 64.769531 48.226562 L 64.769531 47.289062 L 66.382812 47.082031 L 68.050781 46.820312 L 68.519531 46.351562 C 69.484375 46.199219 70.449219 46.109375 71.421875 46.015625 L 72.269531 45.882812 L 72.738281 45.414062 C 78.71875 44.40625 84.914062 44.386719 90.960938 44.386719 L 92.785156 44.386719 C 95.957031 44.40625 95.957031 44.40625 97.113281 44.476562 L 97.582031 44.945312 C 99.167969 45.144531 100.691406 45.183594 102.269531 44.945312 C 103.460938 43.847656 103.460938 43.847656 104.144531 42.601562 L 105.082031 42.601562 L 105.433594 41.839844 C 106.164062 40.453125 106.972656 39.179688 107.894531 37.914062 L 108.832031 37.914062 L 108.832031 36.976562 L 109.769531 36.976562 L 110.707031 35.101562 L 111.644531 35.101562 L 111.644531 34.164062 L 112.464844 33.8125 C 113.582031 33.253906 113.582031 33.253906 114.515625 32.230469 L 115.394531 31.351562 L 116.332031 31.351562 L 116.332031 30.414062 L 117.269531 30.414062 L 117.269531 29.476562 L 118.617188 29.125 L 120.082031 28.539062 L 120.527344 27.632812 C 121.019531 26.664062 121.019531 26.664062 121.851562 26.082031 L 122.863281 25.578125 C 124.472656 24.742188 126.023438 23.8125 127.523438 22.796875 C 131.234375 20.398438 135.285156 18.632812 139.300781 16.820312 L 140.234375 16.382812 C 141.796875 15.671875 142.703125 15.414062 144.457031 15.414062 L 144.457031 14.476562 L 147.269531 14.476562 L 147.269531 13.539062 L 148.351562 13.28125 C 151.660156 12.476562 151.660156 12.476562 154.886719 11.398438 C 158.007812 10.324219 161.347656 10.136719 164.613281 9.789062 C 165.730469 9.664062 166.84375 9.539062 167.957031 9.414062 C 168.667969 9.332031 169.378906 9.253906 170.089844 9.179688 C 170.921875 9.085938 171.753906 8.96875 172.582031 8.851562 Z M 166.957031 21.507812 L 166.957031 22.445312 L 165.992188 22.152344 C 164.226562 21.925781 163.027344 22.398438 161.332031 22.914062 C 160.398438 23.019531 159.464844 23.121094 158.53125 23.222656 C 157.21875 23.441406 156.070312 23.914062 154.84375 24.414062 C 153.765625 24.8125 152.695312 25.078125 151.578125 25.34375 C 147.484375 26.410156 143.632812 28.253906 139.769531 29.945312 L 139.769531 30.882812 L 138.65625 31.203125 C 133.804688 32.960938 129.800781 35.777344 125.707031 38.851562 L 124.828125 39.507812 C 121.484375 42.011719 118.480469 44.476562 115.863281 47.757812 C 115.347656 48.324219 114.832031 48.890625 114.3125 49.457031 C 112.539062 51.46875 111.011719 53.648438 109.476562 55.84375 C 108.6875 56.972656 107.933594 58.03125 106.957031 59.007812 L 105.082031 59.007812 C 102.59375 67.132812 101.371094 76.867188 103.207031 85.257812 C 103.308594 86.164062 103.394531 87.074219 103.472656 87.980469 L 103.589844 89.367188 L 103.675781 90.414062 C 99.988281 81.90625 101.003906 70.710938 101.675781 61.65625 C 101.78125 60.136719 101.820312 59.0625 101.332031 57.601562 L 98.988281 58.070312 L 98.988281 57.132812 C 92.453125 56.148438 85.871094 55.625 79.300781 56.664062 L 78.363281 57.132812 C 77.664062 57.210938 76.960938 57.269531 76.261719 57.320312 C 73.710938 57.554688 71.351562 58.117188 68.902344 58.832031 L 67.601562 59.210938 C 58.160156 62.066406 49.457031 67.269531 42.269531 74.007812 L 41.496094 74.730469 C 36.75 79.195312 32.355469 83.933594 29.621094 89.914062 C 29.144531 90.882812 29.144531 90.882812 28.179688 92.082031 C 25.617188 95.308594 24.613281 99.644531 23.519531 103.539062 L 23.050781 105.121094 C 22.6875 106.433594 22.34375 107.75 22.027344 109.074219 L 21.773438 110.140625 L 21.644531 111.039062 L 22.113281 111.976562 L 21.175781 111.976562 C 20.746094 116.230469 20.621094 120.445312 20.621094 124.71875 L 20.601562 126.570312 C 20.597656 129.839844 20.796875 132.726562 21.644531 135.882812 L 22.113281 139.164062 C 22.566406 141.601562 23.179688 143.886719 24.09375 146.1875 C 24.46875 147.15625 24.769531 148.132812 25.074219 149.125 C 28.394531 159.140625 35.617188 167.25 43.207031 174.320312 C 44.730469 175.617188 46.292969 176.867188 47.894531 178.070312 L 48.875 178.875 L 49.769531 179.476562 L 51.175781 179.476562 L 51.175781 180.414062 L 54.457031 181.351562 L 54.457031 182.289062 L 56.332031 182.289062 L 56.332031 183.226562 L 58.207031 183.226562 L 58.207031 184.164062 L 60.082031 184.164062 L 60.082031 185.101562 C 61.726562 185.851562 62.960938 186.140625 64.769531 186.039062 L 64.769531 186.976562 C 66.703125 187.914062 68.261719 187.996094 70.394531 187.914062 L 70.394531 188.851562 L 72.242188 189.054688 C 72.878906 189.125 73.515625 189.210938 74.144531 189.320312 L 74.613281 189.789062 C 75.636719 189.824219 76.664062 189.828125 77.691406 189.816406 L 79.390625 189.804688 L 80.707031 189.789062 L 80.707031 190.726562 C 82.417969 190.738281 84.125 190.75 85.835938 190.753906 L 87.3125 190.765625 L 88.71875 190.773438 L 90.019531 190.78125 L 91.019531 190.726562 L 91.488281 190.257812 C 91.5625 188.941406 91.609375 187.632812 91.636719 186.316406 L 91.667969 185.117188 C 91.695312 183.851562 91.726562 182.585938 91.753906 181.320312 L 91.8125 178.753906 C 91.863281 176.652344 91.914062 174.546875 91.957031 172.445312 L 91.019531 172.445312 L 91.019531 171.507812 L 88.207031 170.570312 L 88.207031 169.632812 L 87.066406 169.25 L 85.863281 168.695312 L 85.394531 167.289062 C 84.632812 166.535156 84.632812 166.535156 83.695312 165.792969 C 81.945312 164.320312 80.488281 162.734375 79.042969 160.960938 L 78.363281 160.257812 L 77.425781 160.257812 L 77.046875 159.230469 C 76.488281 157.914062 75.890625 156.75 75.082031 155.570312 L 74.144531 155.570312 L 73.941406 154.484375 C 73.695312 153.1875 73.695312 153.1875 73.207031 151.820312 L 72.269531 151.820312 L 72.066406 150.53125 C 71.863281 149.375 71.636719 148.261719 71.332031 147.132812 L 70.394531 147.132812 L 70.394531 144.320312 L 69.457031 144.320312 L 69.457031 140.570312 L 68.519531 140.570312 L 68.554688 139.503906 C 68.609375 136.289062 68.355469 133.378906 67.582031 130.257812 C 68.519531 131.195312 68.519531 131.195312 68.871094 132.472656 L 69.195312 134.035156 C 70.0625 138.210938 71.492188 142.066406 73.207031 145.960938 L 73.695312 147.109375 L 74.175781 148.203125 L 74.601562 149.183594 L 75.082031 149.945312 L 76.488281 150.414062 C 76.679688 151.179688 76.871094 151.945312 77.054688 152.710938 C 77.8125 154.722656 79.347656 156.28125 80.707031 157.914062 L 81.585938 159.144531 C 83.699219 161.507812 86.152344 163.402344 89.144531 164.476562 L 89.144531 165.414062 C 90.242188 166.132812 91.230469 166.773438 92.425781 167.289062 C 93.480469 167.152344 93.480469 167.152344 94.300781 166.351562 C 95.09375 165.578125 95.875 164.796875 96.644531 164.007812 L 97.730469 163.214844 L 98.519531 162.601562 L 98.519531 161.664062 L 103.207031 159.789062 L 103.207031 158.851562 L 103.96875 158.734375 C 105.191406 158.40625 105.191406 158.40625 106.488281 157.445312 C 107.679688 156.652344 108.390625 156.25 109.769531 156.039062 L 109.769531 155.101562 L 110.511719 154.964844 C 112.035156 154.519531 113.34375 153.808594 114.75 153.078125 C 117.410156 151.71875 120.089844 150.515625 122.894531 149.476562 L 122.894531 148.539062 L 126.558594 147.804688 L 127.582031 147.601562 L 127.582031 146.664062 L 128.597656 146.46875 C 132.113281 145.742188 135.5 144.703125 138.832031 143.382812 C 138.953125 141.007812 138.519531 139.089844 137.894531 136.820312 L 136.957031 136.820312 L 136.957031 132.132812 L 136.019531 132.132812 C 136.074219 131.4375 136.132812 130.746094 136.195312 130.050781 C 136.230469 129.667969 136.261719 129.28125 136.292969 128.882812 L 136.488281 127.914062 L 137.425781 127.445312 L 137.542969 129.054688 C 137.851562 131.421875 138.703125 133.292969 139.769531 135.414062 L 140.53125 137.015625 C 143.25 142.5625 146.898438 147.230469 151.667969 151.171875 C 152.429688 151.824219 153.128906 152.515625 153.832031 153.226562 C 154.59375 153.878906 155.375 154.503906 156.175781 155.101562 L 157.113281 155.101562 L 157.113281 156.039062 L 158.519531 156.039062 L 158.519531 156.976562 L 159.925781 156.976562 L 159.925781 157.914062 L 161.042969 158.464844 C 165.554688 160.699219 165.554688 160.699219 167.484375 161.839844 C 168.710938 162.679688 168.710938 162.679688 169.769531 162.601562 L 169.769531 163.539062 L 171.1875 164.035156 L 173.023438 164.679688 L 173.957031 165.007812 C 176.277344 165.828125 176.277344 165.828125 176.800781 166.351562 C 177.582031 166.371094 178.363281 166.371094 179.144531 166.351562 L 179.144531 167.289062 L 181.488281 167.289062 L 181.488281 168.226562 L 184.300781 168.226562 L 184.300781 169.164062 L 187.582031 169.164062 L 187.582031 170.101562 L 190.863281 170.101562 L 190.863281 171.039062 L 194.613281 171.039062 L 194.613281 171.976562 C 212.15625 175.347656 231.820312 176.820312 249.457031 172.914062 L 249.925781 172.445312 C 250.636719 172.339844 251.351562 172.25 252.066406 172.179688 L 253.238281 172.0625 L 254.144531 171.976562 L 254.144531 171.039062 L 257.894531 171.039062 L 257.894531 170.101562 L 259.097656 170.152344 C 263.0625 170.023438 266.957031 168.425781 270.550781 166.820312 C 271.929688 166.496094 271.929688 166.496094 272.894531 166.351562 L 272.894531 165.414062 L 273.910156 165.234375 C 278.617188 164.203125 282.613281 161.621094 286.601562 159.039062 C 288.25 157.972656 289.933594 156.996094 291.644531 156.039062 L 291.644531 155.101562 L 292.730469 154.691406 C 294.058594 154.179688 294.058594 154.179688 295.394531 153.226562 L 295.394531 152.289062 L 296.332031 152.289062 L 296.332031 151.351562 L 297.117188 151.027344 C 298.53125 150.230469 299.527344 149.21875 300.667969 148.070312 L 301.9375 146.808594 L 302.894531 145.726562 L 302.894531 144.789062 L 303.832031 144.789062 L 304.769531 143.382812 L 304.769531 141.976562 L 305.707031 141.976562 C 306.023438 141.371094 306.335938 140.765625 306.644531 140.160156 L 307.171875 139.136719 C 307.648438 138.25 307.648438 138.25 307.582031 137.289062 L 308.519531 137.289062 C 310.828125 132.847656 310.828125 132.847656 311.332031 127.914062 L 312.738281 127.914062 C 311.507812 138.625 311.507812 138.625 309.773438 142.527344 L 309.457031 143.382812 L 309.925781 144.320312 L 308.988281 144.320312 L 308.988281 146.195312 L 308.050781 146.195312 L 308.050781 148.070312 L 306.644531 148.070312 L 306.378906 148.832031 C 304.578125 153.121094 301.296875 156.171875 298.082031 159.433594 C 297.425781 160.101562 296.773438 160.777344 296.125 161.457031 C 291.066406 166.699219 291.066406 166.699219 287.894531 167.757812 L 287.894531 168.695312 L 286.957031 168.695312 L 286.957031 169.632812 L 286.136719 169.75 C 285.035156 170.066406 285.035156 170.066406 284 170.804688 L 283.207031 171.976562 C 283.191406 173.042969 283.332031 174.019531 283.507812 175.070312 C 283.753906 176.707031 283.707031 178.292969 283.675781 179.945312 C 287.207031 181.59375 291.25 180.984375 295.042969 180.675781 C 295.789062 180.613281 296.53125 180.523438 297.269531 180.414062 L 297.738281 179.945312 C 298.449219 179.871094 299.164062 179.816406 299.878906 179.769531 C 301.816406 179.59375 303.375 179.207031 305.164062 178.460938 C 307.164062 177.6875 309.257812 177.199219 311.332031 176.664062 L 311.332031 175.726562 L 312.269531 175.578125 C 315.710938 174.789062 318.558594 173.300781 321.527344 171.449219 L 322.636719 170.765625 C 325.726562 168.832031 328.625 166.726562 331.488281 164.476562 L 332.578125 163.714844 L 333.363281 163.070312 L 333.363281 162.132812 L 334.183594 161.78125 C 335.394531 161.109375 336.203125 160.359375 337.113281 159.320312 L 337.113281 158.382812 L 338.050781 158.382812 L 338.050781 157.445312 L 338.988281 157.445312 L 339.339844 156.332031 L 339.925781 155.101562 C 340.894531 154.574219 340.894531 154.574219 341.800781 154.164062 L 342.269531 152.757812 L 343.238281 151.820312 L 344.144531 150.882812 L 344.144531 149.476562 L 345.082031 149.476562 L 347.507812 144.625 L 347.941406 143.753906 C 348.339844 142.964844 348.753906 142.1875 349.175781 141.410156 C 349.898438 140.054688 349.898438 140.054688 349.769531 138.226562 L 350.707031 138.226562 L 350.707031 135.414062 L 351.644531 135.414062 L 351.851562 133.800781 L 352.113281 132.132812 L 352.582031 131.664062 L 353.050781 128.382812 L 353.519531 127.914062 C 353.617188 127.132812 353.691406 126.351562 353.753906 125.570312 C 353.816406 124.785156 353.890625 124.003906 353.988281 123.226562 L 354.457031 122.757812 C 354.511719 121.542969 354.535156 120.34375 354.535156 119.132812 L 354.542969 118.011719 C 354.542969 117.222656 354.542969 116.433594 354.542969 115.648438 C 354.546875 114.460938 354.554688 113.277344 354.5625 112.089844 C 354.578125 107.734375 354.371094 103.609375 353.519531 99.320312 L 352.582031 99.320312 L 352.582031 95.570312 L 351.644531 95.570312 L 351.703125 94.339844 C 351.644531 92.699219 351.289062 91.46875 350.707031 89.945312 L 349.769531 89.945312 L 349.566406 88.390625 C 349.355469 86.695312 349.355469 86.695312 348.832031 85.257812 L 347.894531 85.257812 L 347.894531 83.382812 L 346.957031 83.382812 L 346.8125 82.386719 C 346.445312 80.855469 345.824219 79.609375 345.082031 78.226562 L 344.144531 78.226562 L 344 77.433594 C 343.609375 76.128906 343.03125 75.132812 342.269531 74.007812 L 341.332031 73.539062 C 340.636719 72.480469 340.066406 71.371094 339.457031 70.257812 L 338.519531 70.257812 L 338.175781 69.449219 C 336.40625 66.265625 332.933594 63.574219 330.082031 61.351562 L 328.675781 61.351562 L 328.675781 60.414062 L 327.738281 60.414062 L 327.269531 59.007812 L 325.863281 58.070312 L 324.457031 58.070312 L 324.457031 57.132812 L 322.847656 56.75 L 321.175781 56.195312 L 320.707031 54.789062 C 319.949219 54.242188 319.949219 54.242188 318.992188 53.8125 L 317.90625 53.285156 L 316.722656 52.738281 L 315.511719 52.171875 C 310.511719 49.902344 305.3125 48.324219 299.875 47.476562 C 299.078125 47.351562 298.28125 47.203125 297.492188 47.027344 C 290.257812 45.523438 282.007812 45.847656 274.769531 47.289062 C 273.984375 47.589844 273.203125 47.902344 272.425781 48.226562 L 270.902344 48.429688 C 268.214844 48.835938 265.394531 49.613281 263.050781 51.039062 L 262.582031 52.445312 C 264.621094 54.59375 266.652344 56.457031 269.144531 58.070312 L 270.082031 58.070312 L 270.417969 58.914062 C 271.515625 60.792969 273.460938 61.695312 275.3125 62.757812 C 280.007812 65.59375 280.007812 65.59375 285.082031 66.976562 L 285.082031 67.914062 L 285.859375 68.136719 C 288.332031 68.867188 290.765625 69.667969 293.199219 70.519531 C 295.90625 71.453125 298.554688 72.042969 301.398438 72.386719 C 303.328125 72.664062 305.214844 73.09375 307.113281 73.539062 C 293.230469 73.917969 293.230469 73.917969 286.488281 71.664062 L 284.867188 71.203125 C 281.496094 70.242188 278.382812 68.984375 275.238281 67.445312 L 273.542969 66.632812 C 270.941406 65.367188 268.554688 64.160156 266.332031 62.289062 C 265.371094 61.542969 264.402344 60.800781 263.433594 60.0625 L 261.949219 58.925781 L 260.707031 58.070312 L 259.769531 58.070312 L 259.300781 56.664062 C 258.339844 55.597656 258.339844 55.597656 256.957031 54.789062 L 255.199219 54.757812 C 254.234375 54.699219 254.234375 54.699219 253.207031 54.320312 C 251.976562 53.0625 250.953125 51.742188 249.917969 50.320312 L 248.988281 49.164062 L 247.582031 48.695312 C 247.253906 48.078125 246.941406 47.453125 246.644531 46.820312 C 246.117188 46.160156 245.570312 45.515625 245.003906 44.886719 L 244.140625 43.914062 C 243.582031 43.308594 243.011719 42.714844 242.425781 42.132812 L 241.019531 42.132812 L 241.019531 41.195312 L 240.082031 41.195312 L 240.082031 40.257812 L 237.738281 39.320312 L 237.738281 38.382812 L 236.332031 38.382812 L 236.332031 37.445312 L 234.925781 37.445312 L 234.925781 36.507812 L 233.519531 36.507812 L 233.519531 35.570312 L 232.113281 35.570312 L 232.113281 34.632812 L 230.707031 34.632812 L 230.707031 33.695312 L 229.273438 32.992188 C 227.675781 32.199219 226.117188 31.355469 224.558594 30.488281 C 219.183594 27.535156 213.703125 25.371094 207.675781 24.152344 C 206.332031 23.851562 206.332031 23.851562 205.113281 23.40625 C 202.71875 22.664062 200.277344 22.3125 197.808594 21.917969 L 196.28125 21.660156 C 193.359375 21.1875 190.570312 20.957031 187.609375 21.054688 L 186.644531 21.039062 L 186.175781 20.570312 C 185.066406 20.507812 183.976562 20.480469 182.867188 20.480469 L 181.824219 20.480469 C 176.855469 20.527344 171.902344 21.039062 166.957031 21.507812 M 144.925781 153.695312 C 143.835938 153.917969 143.835938 153.917969 142.640625 154.335938 L 141.253906 154.796875 L 139.769531 155.304688 L 138.257812 155.816406 C 133.667969 157.394531 129.207031 159.226562 124.769531 161.195312 L 124.769531 162.132812 L 123.347656 162.488281 C 121.414062 163.039062 119.75 163.910156 118.003906 164.886719 L 116.136719 165.90625 L 115.246094 166.394531 C 114.34375 166.878906 113.425781 167.324219 112.496094 167.757812 C 109.59375 169.183594 105.578125 171.1875 103.675781 173.851562 C 103.21875 176.324219 103.140625 178.722656 103.148438 181.222656 L 103.144531 182.425781 C 103.144531 183.726562 103.144531 185.027344 103.144531 186.328125 C 103.144531 187.238281 103.144531 188.148438 103.144531 189.058594 C 103.144531 190.960938 103.144531 192.867188 103.148438 194.773438 C 103.148438 197.203125 103.148438 199.636719 103.144531 202.070312 C 103.144531 203.949219 103.144531 205.828125 103.144531 207.707031 C 103.144531 208.605469 103.144531 209.5 103.144531 210.398438 C 103.144531 211.65625 103.144531 212.910156 103.148438 214.167969 L 103.144531 215.277344 C 103.152344 217.75 103.371094 220.148438 103.675781 222.601562 L 105.082031 222.601562 L 105.082031 221.664062 L 105.898438 221.488281 C 106.996094 221.183594 107.902344 220.773438 108.921875 220.257812 L 110.164062 219.628906 C 111.28125 219.039062 112.398438 218.445312 113.507812 217.839844 C 117.5 215.679688 121.410156 213.777344 125.707031 212.289062 L 125.707031 211.351562 L 126.734375 211.175781 C 128.039062 210.882812 129.164062 210.46875 130.394531 209.945312 C 131.957031 209.28125 133.410156 208.824219 135.082031 208.539062 L 135.082031 207.601562 L 137.894531 207.601562 L 137.894531 206.664062 L 140.707031 206.664062 L 140.707031 205.726562 L 142.085938 205.753906 L 143.519531 205.726562 L 143.988281 205.257812 C 145.082031 205.085938 146.175781 204.929688 147.269531 204.789062 L 147.269531 203.851562 L 148.414062 203.9375 C 149.882812 203.863281 150.730469 203.671875 152.074219 203.175781 C 154.074219 202.453125 155.949219 202.210938 158.066406 202.074219 L 158.988281 201.976562 L 159.457031 201.507812 C 160.667969 201.355469 161.875 201.265625 163.089844 201.171875 L 164.144531 201.039062 L 164.613281 200.570312 C 178.191406 198.714844 192.660156 199.03125 206.246094 200.484375 C 207.386719 200.597656 207.386719 200.597656 209 200.539062 C 210.757812 200.574219 212.15625 201.003906 213.832031 201.507812 C 214.992188 201.671875 216.152344 201.820312 217.320312 201.945312 C 219.3125 202.191406 221.117188 202.433594 222.972656 203.207031 C 224.820312 203.933594 225.945312 203.972656 227.894531 203.851562 L 227.894531 204.789062 L 229.3125 205.078125 L 231.148438 205.460938 L 232.976562 205.839844 L 234.457031 206.195312 L 234.925781 206.664062 C 235.707031 206.683594 236.488281 206.683594 237.269531 206.664062 L 237.269531 207.601562 L 240.082031 207.601562 L 240.082031 208.539062 L 242.894531 208.539062 L 242.894531 209.476562 C 244.539062 210.226562 245.773438 210.515625 247.582031 210.414062 L 247.582031 211.351562 L 248.546875 211.695312 C 249.945312 212.199219 251.34375 212.710938 252.738281 213.226562 L 253.960938 213.667969 C 256.890625 214.777344 259.464844 216.25 262.113281 217.914062 C 263.1875 218.574219 264.28125 219.199219 265.394531 219.789062 L 266.800781 219.789062 L 266.800781 220.726562 C 267.394531 221.054688 267.992188 221.375 268.589844 221.691406 L 269.59375 222.238281 L 270.550781 222.601562 L 271.957031 222.132812 L 271.957031 178.070312 C 269.769531 178.382812 268.230469 178.613281 266.242188 179.324219 L 264.886719 179.792969 L 263.460938 180.296875 C 258.507812 182.003906 253.535156 183.328125 248.414062 184.421875 C 247.539062 184.609375 247.539062 184.609375 246.644531 185.101562 C 245.75 185.199219 244.851562 185.273438 243.953125 185.332031 L 242.289062 185.449219 L 240.550781 185.570312 C 239.460938 185.652344 238.371094 185.734375 237.28125 185.820312 L 233.960938 186.066406 L 232.289062 186.195312 C 226.582031 186.617188 221.003906 186.527344 215.296875 186.125 L 213.507812 186 C 194.554688 184.59375 194.554688 184.59375 190.394531 181.820312 C 189.667969 181.660156 188.933594 181.523438 188.199219 181.410156 C 186.242188 181.046875 184.707031 180.484375 182.972656 179.527344 C 181.9375 178.996094 180.902344 178.578125 179.820312 178.160156 C 176.726562 176.941406 173.765625 175.476562 170.777344 174.019531 L 169.507812 173.40625 L 168.363281 172.84375 C 167.453125 172.382812 167.453125 172.382812 166.488281 172.445312 L 166.488281 171.507812 C 165.816406 171.125 165.140625 170.746094 164.46875 170.363281 L 163.332031 169.722656 C 162.242188 169.113281 162.242188 169.113281 160.863281 168.695312 L 160.863281 167.757812 L 159.457031 167.757812 L 159.457031 166.820312 L 157.113281 165.882812 L 157.113281 164.945312 L 155.707031 164.945312 L 155.707031 164.007812 C 154.996094 163.304688 154.996094 163.304688 154.066406 162.570312 C 152.167969 160.972656 150.582031 159.214844 148.988281 157.316406 L 148.207031 156.507812 L 147.269531 156.507812 L 146.890625 155.363281 L 146.332031 154.164062 Z M 204.457031 281.664062 L 204.925781 282.132812 L 208.207031 282.601562 L 208.675781 283.070312 C 209.769531 283.242188 210.863281 283.398438 211.957031 283.539062 L 211.957031 284.476562 L 212.894531 284.621094 C 214.695312 285.035156 216.332031 285.679688 218.050781 286.351562 L 218.050781 287.289062 L 218.878906 287.441406 C 220.058594 287.796875 220.75 288.285156 221.714844 289.046875 C 222.960938 290.023438 224.242188 290.960938 225.550781 291.859375 L 226.957031 292.914062 L 226.957031 293.851562 L 227.808594 294.261719 C 228.832031 294.789062 228.832031 294.789062 230.238281 295.726562 L 230.238281 296.664062 L 231.046875 297.039062 C 234 298.59375 236.355469 300.800781 238.433594 303.375 C 239.460938 304.511719 240.667969 305.332031 241.910156 306.21875 C 243.648438 307.554688 245.226562 309.054688 246.644531 310.726562 L 246.644531 311.664062 L 247.40625 311.738281 C 249.058594 312.324219 250.128906 313.507812 251.363281 314.710938 C 254.0625 317.273438 256.867188 319.644531 259.769531 321.976562 C 260.890625 322.882812 261.984375 323.820312 263.050781 324.789062 L 263.050781 325.726562 L 263.988281 326.019531 C 265.898438 326.894531 267.59375 328.058594 269.144531 329.476562 L 269.144531 330.414062 L 270.550781 330.414062 L 270.550781 331.351562 L 271.957031 331.351562 L 271.957031 332.289062 L 273.832031 332.289062 L 273.832031 333.226562 L 275.707031 333.226562 L 275.707031 334.164062 L 278.519531 334.164062 L 278.519531 335.101562 L 283.207031 335.101562 L 283.207031 336.039062 C 284.996094 335.988281 286.78125 335.925781 288.570312 335.863281 C 289.070312 335.847656 289.570312 335.832031 290.089844 335.820312 C 295.261719 335.632812 295.261719 335.632812 300.054688 333.871094 L 301.019531 333.226562 L 301.957031 333.226562 L 301.957031 332.289062 L 302.894531 332.289062 L 302.894531 331.351562 L 303.832031 331.351562 L 304.273438 329.972656 C 304.769531 328.539062 304.769531 328.539062 305.238281 328.070312 L 305.707031 324.789062 L 306.175781 324.320312 C 306.402344 321.625 305.925781 319.273438 304.769531 316.820312 C 304.117188 316.007812 304.117188 316.007812 303.363281 315.414062 C 302.378906 315.078125 302.378906 315.078125 301.488281 314.945312 L 301.839844 315.882812 C 301.964844 317.367188 301.804688 317.902344 301.195312 319.222656 C 300.535156 320.417969 300.0625 321.054688 299 321.945312 C 297.375 322.589844 296.21875 322.914062 294.457031 322.914062 C 292.664062 322.089844 291.164062 321.027344 289.769531 319.632812 C 289.5 318.199219 289.53125 316.851562 289.769531 315.414062 C 291.035156 313.496094 292.546875 312 294.457031 310.726562 L 296.332031 310.726562 L 296.332031 309.789062 C 305.011719 309.355469 305.011719 309.355469 309.199219 311.402344 C 311.886719 313.042969 314.265625 315.125 316.019531 317.757812 C 317.324219 320.425781 317.09375 323.292969 316.957031 326.195312 C 316.847656 327.296875 316.691406 328.390625 316.488281 329.476562 L 315.550781 329.476562 L 315.433594 330.414062 C 314.640625 333.589844 312.878906 336.304688 310.863281 338.851562 L 309.925781 338.851562 L 309.457031 340.257812 L 308.519531 340.257812 L 308.519531 341.195312 C 304.875 344.328125 300.140625 347.589844 295.394531 348.695312 C 293.8125 348.753906 293.8125 348.753906 292.582031 348.695312 L 292.582031 349.632812 C 277.101562 350.566406 277.101562 350.566406 272.222656 348.671875 C 270.871094 348.171875 269.511719 347.777344 268.125 347.386719 C 261.988281 345.640625 256.378906 343.371094 250.976562 339.894531 L 249.925781 339.320312 L 248.988281 339.789062 C 249.746094 341.058594 250.511719 342.308594 251.332031 343.539062 L 251.332031 344.945312 L 248.050781 344.945312 L 248.050781 344.007812 L 244.300781 344.007812 L 244.300781 343.070312 L 242.867188 342.863281 L 237.738281 342.132812 L 237.738281 341.195312 L 236.390625 341.046875 C 234.496094 340.78125 232.71875 340.242188 230.898438 339.667969 C 229.984375 339.386719 229.058594 339.140625 228.128906 338.910156 C 226.328125 338.328125 224.753906 337.535156 223.074219 336.667969 C 221.789062 336.03125 220.492188 335.488281 219.164062 334.953125 C 214.109375 332.882812 209.289062 330.285156 204.457031 327.746094 L 203.488281 327.242188 C 201.546875 326.214844 199.6875 325.097656 197.835938 323.917969 C 196.882812 323.316406 196.882812 323.316406 195.511719 322.683594 C 193.84375 321.820312 192.46875 320.746094 191.011719 319.574219 C 188.992188 317.921875 188.992188 317.921875 186.644531 316.820312 L 186.644531 315.882812 L 185.589844 315.5 C 184.300781 314.945312 184.300781 314.945312 183.394531 314.152344 L 182.425781 313.539062 C 181.113281 313.515625 181.113281 313.515625 179.613281 314.007812 C 178.328125 314.8125 177.179688 315.769531 176.011719 316.730469 C 172.082031 319.851562 167.96875 322.539062 163.6875 325.148438 C 162.886719 325.636719 162.089844 326.132812 161.300781 326.636719 C 159.144531 327.984375 157.023438 328.988281 154.640625 329.875 C 152.53125 330.761719 150.5625 331.914062 148.574219 333.042969 C 147.269531 333.695312 147.269531 333.695312 145.863281 333.695312 L 145.863281 334.632812 L 143.519531 334.632812 L 143.519531 335.570312 L 142.742188 335.839844 C 141.546875 336.257812 140.351562 336.675781 139.15625 337.09375 L 137.855469 337.546875 C 135.21875 338.464844 132.589844 339.410156 129.96875 340.386719 C 129.023438 340.714844 128.085938 340.953125 127.113281 341.195312 C 126.355469 341.410156 125.597656 341.632812 124.84375 341.855469 L 123.542969 342.234375 C 122.640625 342.5 121.742188 342.765625 120.84375 343.03125 L 119.539062 343.410156 L 118.355469 343.757812 C 117.269531 344.007812 117.269531 344.007812 115.394531 344.007812 L 114.925781 344.945312 C 113.683594 345.222656 112.445312 345.292969 111.175781 345.414062 L 111.644531 343.539062 L 112.582031 343.539062 L 113.519531 340.726562 L 114.457031 340.726562 L 114.457031 338.851562 L 113.566406 339.363281 L 112.40625 340.023438 L 111.253906 340.683594 C 110.238281 341.195312 110.238281 341.195312 109.300781 341.195312 L 109.300781 342.132812 L 107.425781 342.132812 L 107.425781 343.070312 L 105.699219 343.625 C 103.238281 344.441406 100.839844 345.394531 98.4375 346.355469 C 97.113281 346.820312 97.113281 346.820312 95.707031 346.820312 L 95.238281 347.757812 C 94.164062 348.042969 93.078125 348.277344 91.988281 348.488281 C 89.796875 348.867188 89.796875 348.867188 87.738281 349.632812 C 82.257812 350.265625 76.324219 350.46875 70.863281 349.632812 C 70.234375 349.328125 69.609375 349.015625 68.988281 348.695312 L 67.113281 348.695312 L 67.113281 347.757812 L 64.300781 347.757812 L 63.832031 346.820312 C 62.984375 346.40625 62.984375 346.40625 61.957031 346.027344 C 59.4375 344.957031 57.496094 343.394531 55.394531 341.664062 L 54.335938 340.949219 L 53.519531 340.257812 L 53.519531 338.851562 L 52.113281 338.382812 L 51.175781 336.039062 L 49.769531 335.570312 C 49.214844 334.132812 49.214844 334.132812 48.832031 332.757812 L 47.894531 332.757812 L 47.894531 330.882812 L 46.957031 330.882812 L 46.957031 327.132812 L 46.019531 326.664062 C 45.777344 320.707031 45.777344 320.707031 46.578125 318.695312 C 47.507812 317.15625 48.425781 316.140625 49.769531 314.945312 L 50.6875 314.105469 C 53.6875 311.402344 53.6875 311.402344 55.394531 310.726562 L 57.269531 310.726562 L 57.269531 309.789062 C 58.785156 309.761719 60.296875 309.746094 61.8125 309.730469 L 63.105469 309.707031 C 65.269531 309.691406 67.027344 309.679688 68.988281 310.726562 L 68.988281 311.664062 L 69.832031 312.039062 C 71.230469 312.800781 72.105469 313.722656 73.105469 314.941406 C 73.730469 315.972656 73.925781 316.648438 74 317.84375 L 73.675781 319.632812 C 72.5625 320.746094 72.5625 320.746094 71.332031 321.507812 L 70.394531 322.445312 C 68.644531 322.746094 66.992188 322.710938 65.238281 322.445312 C 64.101562 321.949219 63.386719 321.441406 62.507812 320.570312 C 61.957031 319.632812 61.957031 319.632812 61.761719 318.402344 C 61.753906 317.230469 61.8125 316.105469 61.957031 314.945312 C 60.566406 315.09375 60.566406 315.09375 59.144531 315.882812 C 58.449219 317.230469 58.089844 318.628906 57.738281 320.101562 L 57.484375 321.070312 C 57.101562 322.6875 57 324.097656 57.269531 325.726562 C 58.125 328.210938 59.160156 330.46875 61.078125 332.304688 C 63.28125 333.863281 65.40625 334.621094 68.050781 335.101562 L 68.050781 336.039062 C 69.917969 335.972656 71.78125 335.902344 73.648438 335.832031 L 75.261719 335.777344 L 76.792969 335.71875 L 78.214844 335.667969 L 79.300781 335.570312 L 79.769531 335.101562 C 80.414062 335.027344 81.058594 334.96875 81.703125 334.925781 C 83.203125 334.78125 84.40625 334.53125 85.777344 333.898438 C 87.269531 333.226562 87.269531 333.226562 89.144531 333.226562 L 89.144531 332.289062 C 90.175781 331.546875 90.175781 331.546875 91.546875 330.707031 L 92.984375 329.816406 L 94.300781 329.007812 C 96.902344 327.394531 99.070312 325.425781 101.332031 323.382812 C 102.246094 322.570312 103.183594 321.789062 104.144531 321.039062 L 105.082031 321.039062 L 105.082031 320.101562 C 105.871094 319.394531 105.871094 319.394531 106.898438 318.636719 L 107.921875 317.871094 L 108.832031 317.289062 L 109.769531 317.289062 L 110.707031 315.414062 L 111.644531 315.414062 L 111.644531 314.476562 L 112.582031 314.476562 L 112.582031 313.539062 C 113.371094 312.832031 113.371094 312.832031 114.398438 312.074219 L 115.421875 311.308594 L 116.332031 310.726562 L 117.269531 310.726562 L 117.617188 309.886719 C 118.3125 308.664062 119.035156 308.117188 120.171875 307.296875 C 121.96875 305.957031 123.519531 304.53125 125.046875 302.890625 L 125.707031 302.289062 L 126.644531 302.289062 L 126.644531 301.351562 L 127.582031 301.351562 L 127.582031 300.414062 C 128.421875 299.6875 128.421875 299.6875 129.546875 298.859375 C 131.214844 297.601562 132.683594 296.289062 134.144531 294.789062 C 135.40625 293.703125 135.40625 293.703125 136.488281 292.914062 L 137.425781 292.914062 L 137.78125 292.070312 C 138.449219 290.890625 139.121094 290.316406 140.210938 289.515625 L 141.1875 288.777344 L 142.113281 288.226562 L 143.519531 288.226562 L 143.519531 287.289062 C 147.265625 285.085938 147.265625 285.085938 149.144531 284.476562 L 151.019531 284.476562 L 151.019531 283.539062 C 152.808594 282.980469 154.488281 282.546875 156.351562 282.335938 L 158.050781 282.132812 L 158.519531 281.664062 C 173.117188 279.011719 189.859375 279.011719 204.457031 281.664062 " fill-opacity="1" fill-rule="nonzero"/><path fill="#fa4a0d" d="M 237.386719 236.398438 L 238.445312 236.472656 C 239.304688 236.535156 240.160156 236.597656 241.019531 236.664062 L 241.488281 238.070312 L 241.019531 239.007812 C 240.84375 241.484375 240.84375 241.484375 241.496094 243.816406 L 241.957031 244.632812 C 242.933594 244.5 243.910156 244.363281 244.886719 244.222656 L 246.535156 243.992188 C 247.855469 243.734375 248.777344 243.433594 249.925781 242.757812 C 250.398438 243.507812 250.867188 244.257812 251.332031 245.011719 L 252.125 246.28125 C 252.738281 247.445312 252.738281 247.445312 252.738281 248.851562 L 253.675781 248.851562 C 253.703125 250.355469 253.71875 251.859375 253.734375 253.363281 C 253.742188 253.785156 253.75 254.210938 253.757812 254.644531 C 253.777344 256.972656 253.660156 258.855469 252.738281 261.039062 L 251.800781 261.039062 L 251.449219 262.035156 C 250.050781 265.25 247.976562 267.367188 245.238281 269.476562 C 242.601562 271.136719 239.695312 271.632812 236.632812 271.925781 C 234.054688 272.023438 232.105469 271.453125 229.769531 270.414062 L 228.855469 270.054688 C 227.296875 269.4375 226.207031 268.839844 225.082031 267.601562 L 223.675781 267.132812 C 223.355469 266.164062 223.355469 266.164062 223.207031 265.257812 L 222.269531 265.257812 C 220.730469 262.75 219.648438 260.71875 219.457031 257.757812 L 218.519531 257.757812 C 218.496094 256.574219 218.476562 255.394531 218.460938 254.210938 L 218.4375 253.210938 C 218.417969 250.953125 218.742188 249.121094 219.457031 246.976562 L 220.394531 246.976562 L 220.53125 245.925781 C 220.90625 244.460938 221.402344 243.804688 222.417969 242.699219 L 223.261719 241.757812 C 224.136719 240.890625 224.996094 240.15625 226.019531 239.476562 L 226.957031 239.476562 L 226.957031 238.539062 C 227.699219 238.234375 228.441406 237.929688 229.183594 237.628906 L 230.4375 237.121094 C 232.839844 236.210938 234.835938 236.203125 237.386719 236.398438 M 151.019531 249.789062 L 151.019531 250.726562 L 152.339844 250.492188 C 153.675781 250.496094 154.351562 250.753906 155.535156 251.414062 C 158.421875 253.445312 161.324219 255.664062 163.207031 258.695312 C 164.203125 261.519531 164.613281 264.144531 164.613281 267.132812 L 129.925781 267.132812 L 129.457031 264.789062 L 129.925781 264.320312 L 130.015625 262.941406 C 130.285156 260.765625 131.398438 259.109375 132.519531 257.261719 L 133.207031 256.351562 L 134.144531 256.351562 L 134.496094 255.53125 C 135.394531 253.914062 136.371094 252.957031 137.957031 251.996094 C 142.332031 249.65625 146.132812 249.019531 151.019531 249.789062 " fill-opacity="1" fill-rule="nonzero"/></svg>